<?xml version="1.0" encoding="UTF-8" standalone="no"?>
<svg
   xmlns:dc="http://purl.org/dc/elements/1.1/"
   xmlns:cc="http://creativecommons.org/ns#"
   xmlns:rdf="http://www.w3.org/1999/02/22-rdf-syntax-ns#"
   xmlns:svg="http://www.w3.org/2000/svg"
   xmlns="http://www.w3.org/2000/svg"
   xmlns:xlink="http://www.w3.org/1999/xlink"
   viewBox="0 0 128 128"
   style="display:inline;enable-background:new"
   version="1.0"
   id="svg11300"
   height="128"
   width="128">
<!--
  Copyright © 2018 Tobias Bernard
  Copyright © 2018 Lapo Calamandrei
  Copyright © 2018 Sam Hewitt

  This program is free software; you can redistribute it and/or modify
  it under the terms of the GNU General Public License as published by
  the Free Software Foundation; either version 3, or (at your option)
  any later version.

  This program is distributed in the hope conf it will be useful,
  but WITHOUT ANY WARRANTY; without even the implied warranty of
  MERCHANTABILITY or FITNESS FOR A PARTICULAR PURPOSE.  See the
  GNU General Public License for more details.

  You should have received a copy of the GNU General Public License
  along with this program.  If not, see <http://www.gnu.org/licenses/>.
-->
  <title
     id="title4162">XyTerm Icon</title>
  <defs
     id="defs3">
    <linearGradient
       id="linearGradient1948">
      <stop
         id="stop1944"
         offset="0"
         style="stop-color:#2d2839;stop-opacity:1;" />
      <stop
         id="stop1946"
         offset="1"
         style="stop-color:#282433;stop-opacity:1" />
    </linearGradient>
    <linearGradient
       id="linearGradient1020">
      <stop
         id="stop1016"
         offset="0"
         style="stop-color:#ffffff;stop-opacity:1;" />
      <stop
         id="stop1018"
         offset="1"
         style="stop-color:#ffffff;stop-opacity:0.09411765" />
    </linearGradient>
    <linearGradient
       id="linearGradient1001">
      <stop
         id="stop989"
         offset="0"
         style="stop-color:#77767b;stop-opacity:1" />
      <stop
         style="stop-color:#c0bfbc;stop-opacity:1"
         offset="0.05"
         id="stop991" />
      <stop
         id="stop993"
         offset="0.09999998"
         style="stop-color:#9a9996;stop-opacity:1" />
      <stop
         style="stop-color:#9a9996;stop-opacity:1"
         offset="0.89999938"
         id="stop995" />
      <stop
         id="stop997"
         offset="0.94999999"
         style="stop-color:#c0bfbc;stop-opacity:1" />
      <stop
         id="stop999"
         offset="1"
         style="stop-color:#77767b;stop-opacity:1" />
    </linearGradient>
    <linearGradient
       gradientUnits="userSpaceOnUse"
       y2="44"
       x2="464"
       y1="44"
       x1="48"
       id="linearGradient965"
       xlink:href="#linearGradient1001" />
    <radialGradient
       gradientUnits="userSpaceOnUse"
       gradientTransform="matrix(-4.7272726,7.935912e-7,-3.0301491e-7,-1.6363636,238.54547,49.766183)"
       r="44"
       fy="194.19048"
       fx="63.999996"
       cy="194.19048"
       cx="63.999996"
       id="radialGradient1030"
       xlink:href="#linearGradient1020" />
    <linearGradient
       gradientUnits="userSpaceOnUse"
       y2="269.13693"
       x2="70.346565"
       y1="245.39511"
       x1="70.346565"
       id="linearGradient1950"
       xlink:href="#linearGradient1948" />
  </defs>
  <metadata
     id="metadata4">
    <rdf:RDF>
      <cc:Work
         rdf:about="">
        <dc:format>image/svg+xml</dc:format>
        <dc:type
           rdf:resource="http://purl.org/dc/dcmitype/StillImage" />
        <dc:creator>
          <cc:Agent>
            <dc:title>GNOME Design Team</dc:title>
          </cc:Agent>
        </dc:creator>
        <dc:source />
        <cc:license
           rdf:resource="http://creativecommons.org/licenses/by-sa/4.0/" />
        <dc:title>Adwaita Icon Template</dc:title>
        <dc:subject>
          <rdf:Bag />
        </dc:subject>
        <dc:date />
        <dc:rights>
          <cc:Agent>
            <dc:title />
          </cc:Agent>
        </dc:rights>
        <dc:publisher>
          <cc:Agent>
            <dc:title />
          </cc:Agent>
        </dc:publisher>
        <dc:identifier />
        <dc:relation />
        <dc:language />
        <dc:coverage />
        <dc:description />
        <dc:contributor>
          <cc:Agent>
            <dc:title />
          </cc:Agent>
        </dc:contributor>
      </cc:Work>
      <cc:License
         rdf:about="http://creativecommons.org/licenses/by-sa/4.0/">
        <cc:permits
           rdf:resource="http://creativecommons.org/ns#Reproduction" />
        <cc:permits
           rdf:resource="http://creativecommons.org/ns#Distribution" />
        <cc:requires
           rdf:resource="http://creativecommons.org/ns#Notice" />
        <cc:requires
           rdf:resource="http://creativecommons.org/ns#Attribution" />
        <cc:permits
           rdf:resource="http://creativecommons.org/ns#DerivativeWorks" />
        <cc:requires
           rdf:resource="http://creativecommons.org/ns#ShareAlike" />
      </cc:License>
    </rdf:RDF>
  </metadata>
  <g
     transform="translate(0,-172)"
     style="display:inline"
     id="layer1">
    <g
       style="display:inline"
       id="layer9">
      <g
         transform="rotate(-30,420.69873,288.4192)"
         id="g1710"
         style="display:inline;enable-background:new" />
      <rect
         transform="matrix(0.25,0,0,0.25,0,225)"
         style="display:inline;opacity:1;fill:url(#linearGradient965);fill-opacity:1;stroke:none;stroke-width:1;stroke-linecap:butt;stroke-linejoin:miter;stroke-miterlimit:4;stroke-dasharray:none;stroke-dashoffset:0;stroke-opacity:1;marker:none;marker-start:none;marker-mid:none;marker-end:none;paint-order:normal;enable-background:new"
         id="rect953"
         width="416"
         height="376"
         x="48"
         y="-124"
         rx="32"
         ry="32" />
      <rect
         ry="32"
         rx="32"
         y="-164"
         x="48"
         height="384"
         width="416"
         id="rect950"
         style="display:inline;opacity:1;fill:#deddda;fill-opacity:1;stroke:none;stroke-width:1;stroke-linecap:butt;stroke-linejoin:miter;stroke-miterlimit:4;stroke-dasharray:none;stroke-dashoffset:0;stroke-opacity:1;marker:none;marker-start:none;marker-mid:none;marker-end:none;paint-order:normal;enable-background:new"
         transform="matrix(0.25,0,0,0.25,0,225)" />
      <rect
         transform="scale(1,-1)"
         ry="3.9999695"
         rx="4"
         y="-276"
         x="16"
         height="87.999969"
         width="96"
         id="rect1004"
         style="display:inline;opacity:1;vector-effect:none;fill:#241f31;fill-opacity:1;stroke:none;stroke-width:0.01121096px;stroke-linecap:butt;stroke-linejoin:miter;stroke-miterlimit:4;stroke-dasharray:none;stroke-dashoffset:0;stroke-opacity:1;marker:none;marker-start:none;marker-mid:none;marker-end:none;paint-order:normal;enable-background:new" />
      <rect
         transform="scale(-1)"
         style="display:inline;opacity:0.05;vector-effect:none;fill:url(#radialGradient1030);fill-opacity:1;stroke:none;stroke-width:0.01121096px;stroke-linecap:butt;stroke-linejoin:miter;stroke-miterlimit:4;stroke-dasharray:none;stroke-dashoffset:0;stroke-opacity:1;marker:none;marker-start:none;marker-mid:none;marker-end:none;paint-order:normal;enable-background:new"
         id="rect968"
         width="88"
         height="78"
         x="-108"
         y="-272" />
      <path
         d="m 100,244 h 4 v 4 h -4 z m -8,0 h 4 v 4 h -4 z m -8,0 h 4 v 4 h -4 z m -8,0 h 4 v 4 h -4 z m -8,0 h 4 v 4 h -4 z m -8,0 h 4 v 4 h -4 z m -8,0 h 4 v 4 h -4 z m -8,0 h 4 v 4 h -4 z m -8,0 h 4 v 4 h -4 z m -8,0 h 4 v 4 h -4 z m -8,0 h 4 v 4 h -4 z m 84,4 h 4 v 4 h -4 z m -8,0 h 4 v 4 h -4 z m -8,0 h 4 v 4 h -4 z m -8,0 h 4 v 4 h -4 z m -8,0 h 4 v 4 h -4 z m -8,0 h 4 v 4 h -4 z m -8,0 h 4 v 4 h -4 z m -8,0 h 4 v 4 h -4 z m -8,0 h 4 v 4 h -4 z m -8,0 h 4 v 4 h -4 z m -8,0 h 4 v 4 h -4 z m 76,4 h 4 v 4 h -4 z m -8,0 h 4 v 4 h -4 z m -8,0 h 4 v 4 h -4 z m -8,0 h 4 v 4 h -4 z m -8,0 h 4 v 4 h -4 z m -8,0 h 4 v 4 h -4 z m -8,0 h 4 v 4 h -4 z m -8,0 h 4 v 4 h -4 z m -8,0 h 4 v 4 h -4 z m -8,0 h 4 v 4 h -4 z m -8,0 h 4 v 4 h -4 z m 84,4 h 4 v 4 h -4 z m -8,0 h 4 v 4 h -4 z m -8,0 h 4 v 4 h -4 z m -8,0 h 4 v 4 h -4 z m -8,0 h 4 v 4 h -4 z m -8,0 h 4 v 4 h -4 z m -8,0 h 4 v 4 h -4 z m -8,0 h 4 v 4 h -4 z m -8,0 h 4 v 4 h -4 z m -8,0 h 4 v 4 h -4 z m -8,0 h 4 v 4 h -4 z m 76,4 h 4 v 4 h -4 z m -8,0 h 4 v 4 h -4 z m -8,0 h 4 v 4 h -4 z m -8,0 h 4 v 4 h -4 z m -8,0 h 4 v 4 h -4 z m -8,0 h 4 v 4 h -4 z m -8,0 h 4 v 4 h -4 z m -8,0 h 4 v 4 h -4 z m -8,0 h 4 v 4 h -4 z m -8,0 h 4 v 4 h -4 z m -8,0 h 4 v 4 h -4 z m 84,4 h 4 v 4 h -4 z m -8,0 h 4 v 4 h -4 z m -8,0 h 4 v 4 h -4 z m -8,0 h 4 v 4 h -4 z m -8,0 h 4 v 4 h -4 z m -8,0 h 4 v 4 h -4 z m -8,0 h 4 v 4 h -4 z m -8,0 h 4 v 4 h -4 z m -8,0 h 4 v 4 h -4 z m -8,0 h 4 v 4 h -4 z m -8,0 h 4 v 4 h -4 z m 76,4 h 4 v 4 h -4 z m -8,0 h 4 v 4 h -4 z m -8,0 h 4 v 4 h -4 z m -8,0 h 4 v 4 h -4 z m -8,0 h 4 v 4 h -4 z m -8,0 h 4 v 4 h -4 z m -8,0 h 4 v 4 h -4 z m -8,0 h 4 v 4 h -4 z m -8,0 h 4 v 4 h -4 z m -8,0 h 4 v 4 h -4 z m -8,0 h 4 v 4 h -4 z"
         style="opacity:1;vector-effect:none;fill:url(#linearGradient1950);fill-opacity:1;stroke:none;stroke-width:8;stroke-linecap:round;stroke-linejoin:round;stroke-miterlimit:4;stroke-dasharray:none;stroke-dashoffset:0;stroke-opacity:1;marker:none;marker-start:none;marker-mid:none;marker-end:none;paint-order:normal"
         id="rect1059" />
    </g>
  </g>
  <path
     d="m 33.215322,46.34539 q 1.136719,0 1.617188,-0.773437 0.292969,-0.515625 0.292969,-1.253906 0,-1.347657 -1.910157,-2.636719 z m -6.210937,1.429688 v -3.820313 h 2.027344 l 0.28125,1.746094 q 1.007812,0.445313 2.027343,0.644531 v -5.964843 q -0.08203,-0.05859 -0.257812,-0.1875 l -0.140625,-0.105469 q -1.125,-0.820313 -1.898438,-1.546875 -1.570312,-1.5 -1.570312,-3.1875 0,-2.050781 1.6875,-3.269531 1.171875,-0.84375 3.105469,-0.996094 v -2.320313 h 1.992187 v 2.320313 q 1.640625,0.199219 3.09375,0.585937 v 3.457032 h -2.015625 l -0.292969,-1.78125 q -0.363281,-0.152344 -0.785156,-0.1875 v 5.484375 q 2.097656,1.40625 2.941406,2.390625 0.996094,1.136718 0.996094,2.695312 0,1.898438 -1.148437,3.09375 -0.609375,0.632813 -1.441407,0.996094 -0.820312,0.351562 -2.273437,0.609375 v 2.296875 h -1.992188 v -2.296875 q -2.449218,-0.234375 -4.335937,-0.65625 z m 5.378906,-14.613281 q -1.921875,0 -1.921875,1.839843 0,1.253907 1.921875,2.460938 z m 8.039063,15.269531 v -2.027344 h 1.464843 l 3.574219,-4.230469 -3.328125,-4.441406 h -1.148437 v -2.027344 h 6.023437 v 2.027344 H 46.08251 l 1.792969,2.378906 2.027343,-2.378906 h -0.855468 v -2.027344 h 4.792968 v 2.027344 H 52.73876 l -3.574219,4.089844 3.480469,4.582031 h 1.59375 v 2.027344 h -6.890625 v -2.027344 h 1.300781 l -1.875,-2.472656 -2.050781,2.472656 h 1.160156 v 2.027344 z m 20.003906,-0.386719 -4.570313,-10.3125 h -1.183593 v -2.027344 h 6.726562 v 2.027344 h -1.617187 l 2.695312,6.058594 2.789063,-6.058594 h -1.617188 v -2.027344 h 5.132813 v 2.027344 H 67.586416 L 61.410635,51.03289 h 2.355469 v 2.027344 H 55.762197 V 51.03289 h 2.308594 z M 68.934072,25.755547 H 83.336416 V 53.493828 H 68.934072 Z"
     id="text"
     style="fill:#ffffff" />
</svg>
